<svg id="visual" viewBox="0 0 2200 1400" width="2200" height="1400" xmlns="http://www.w3.org/2000/svg" xmlns:xlink="http://www.w3.org/1999/xlink" version="1.1"><rect x="0" y="0" width="2200" height="1400" fill="#f7fbfe"></rect><defs><linearGradient id="grad1_0" x1="36.4%" y1="0%" x2="100%" y2="100%"><stop offset="18.57142857142857%" stop-color="#f7fbfe" stop-opacity="1"></stop><stop offset="81.42857142857143%" stop-color="#f7fbfe" stop-opacity="1"></stop></linearGradient></defs><defs><linearGradient id="grad2_0" x1="0%" y1="0%" x2="63.6%" y2="100%"><stop offset="18.57142857142857%" stop-color="#f7fbfe" stop-opacity="1"></stop><stop offset="81.42857142857143%" stop-color="#f7fbfe" stop-opacity="1"></stop></linearGradient></defs><g transform="translate(2200, 0)"><path d="M0 1173.5C-114.2 1065.8 -228.3 958.2 -380.4 918.3C-532.5 878.5 -722.5 906.4 -829.8 829.8C-937.1 753.2 -961.7 572.1 -1005.2 416.4C-1048.7 260.7 -1111.1 130.3 -1173.5 0L0 0Z" fill="#FBAE3C"></path></g><g transform="translate(0, 1400)"><path d="M0 -1173.5C136.4 -1091 272.7 -1008.6 386.5 -933.1C500.3 -857.6 591.5 -789.1 717 -717C842.5 -644.9 1002.3 -569.2 1084.1 -449.1C1165.9 -329 1169.7 -164.5 1173.5 0L0 0Z" fill="#FBAE3C"></path></g></svg>