<?xml version="1.0" standalone="no"?>
<svg viewBox="0 0 200 200" xmlns="http://www.w3.org/2000/svg">
  <path fill="#2A159E" d="M49.8,-78C63.6,-68.6,73.2,-53.2,71.6,-38.1C70.1,-23.1,57.5,-8.3,56.1,8.8C54.8,25.9,64.8,45.4,60.2,54.2C55.7,62.9,36.5,61.1,19.5,65.7C2.5,70.4,-12.4,81.6,-21,76.7C-29.6,71.8,-32,50.8,-38.9,37C-45.8,23.1,-57.4,16.5,-62,6.9C-66.6,-2.8,-64.2,-15.5,-58.7,-26.5C-53.2,-37.5,-44.6,-46.7,-34.2,-57.7C-23.9,-68.7,-12,-81.5,3,-86.2C18,-90.9,36,-87.4,49.8,-78Z" transform="translate(100 100)" />
</svg>
